<?xml version="1.0" encoding="utf-8"?>
<!-- Generator: Adobe Illustrator 16.0.0, SVG Export Plug-In . SVG Version: 6.00 Build 0)  -->
<!DOCTYPE svg PUBLIC "-//W3C//DTD SVG 1.1//EN" "http://www.w3.org/Graphics/SVG/1.1/DTD/svg11.dtd" [
	<!ENTITY ns_flows "http://ns.adobe.com/Flows/1.0/">
	<!ENTITY ns_extend "http://ns.adobe.com/Extensibility/1.0/">
	<!ENTITY ns_ai "http://ns.adobe.com/AdobeIllustrator/10.0/">
	<!ENTITY ns_graphs "http://ns.adobe.com/Graphs/1.0/">
]>
<svg version="1.1" id="Layer_1" xmlns:x="&ns_extend;" xmlns:i="&ns_ai;" xmlns:graph="&ns_graphs;"
	 xmlns="http://www.w3.org/2000/svg" xmlns:xlink="http://www.w3.org/1999/xlink" xmlns:a="http://ns.adobe.com/AdobeSVGViewerExtensions/3.0/"
	 x="0px" y="0px" width="164px" height="164px" viewBox="0 0 864 864" enable-background="new 0 0 864 864" xml:space="preserve">
<path fill-rule="evenodd" clip-rule="evenodd" d="M461.085,447.759c1.957,4.692,3.881,9.075,5.625,13.528
	c4.506,11.503,7.686,23.339,8.549,35.714c1.833,26.277-9.229,48.715-33.836,62.321c-9.435,5.218-19.725,8.155-30.113,10.762
	c-8.04,2.017-16.078,4.04-24.127,6.019c-10.071,2.477-17.64,8.351-22.826,17.194c-3.179,5.421-6.048,11.035-8.812,16.682
	c-4.744,9.689-8.971,19.644-13.99,29.183c-16.927,32.171-42.893,53.982-77.055,66.118c-11.912,4.231-24.225,6.019-36.859,5.181
	c-14.022-0.931-26.982-5.323-39.099-12.331c-13.474-7.793-24.9-18.04-35.208-29.595c-15.055-16.875-27.274-35.726-38.306-55.384
	c-8.819-15.718-16.521-31.944-21.957-49.179c-4.048-12.835-6.706-25.922-6.915-39.421c-0.423-27.377,9.581-50.372,29.704-68.798
	c19.537-17.89,42.335-29.562,68.513-34.275c13.262-2.388,26.65-2.491,40.056-1.644c9.177,0.58,18.344,1.346,27.524,1.868
	c6.605,0.375,13.189,0.044,19.659-1.544c4.738-1.164,9.096-3.142,12.7-6.451c3.456-3.174,6.811-6.473,10.036-9.881
	c5.36-5.664,10.519-11.517,15.876-17.183c5.229-5.531,10.86-10.641,17.156-14.951c11.78-8.063,24.714-12.539,39.112-12.191
	c12.233,0.294,23.275,4.395,33.517,10.854c11.726,7.395,21.344,17.09,30.012,27.793c2.198,2.714,4.297,5.508,6.649,8.533
	c2.932-1.596,5.86-3.19,9.011-4.905c8.025,13.552,15.948,26.932,24.034,40.585C466.811,444.178,464.045,445.907,461.085,447.759z
	 M251.505,627.844c1.64-0.688,3.08-1.128,4.356-1.856c4.079-2.327,8.114-4.733,12.127-7.175c1.009-0.614,1.993-1.364,2.771-2.243
	c1.228-1.388,1.551-2.991,0.424-4.669c-0.334-0.497-0.614-1.029-0.919-1.546c-20.518-34.656-41.036-69.312-61.553-103.968
	c-2.24-3.784-4.455-7.583-6.727-11.348c-1.525-2.526-3.339-3.156-6.068-2.176c-0.652,0.235-1.27,0.588-1.871,0.941
	c-4.134,2.434-8.281,4.846-12.38,7.336c-4.195,2.549-4.579,4.251-2.046,8.522c22.578,38.082,45.158,76.162,67.738,114.243
	c0.408,0.688,0.699,1.511,1.269,2.02C249.466,626.676,250.509,627.198,251.505,627.844z M339.308,457.764
	c-18.979,0.025-34.24,15.415-34.18,34.469c0.06,18.794,15.434,34.067,34.307,34.08c18.997,0.013,34.335-15.357,34.294-34.363
	C373.688,472.869,358.453,457.739,339.308,457.764z M360.52,449.982c-13.75-8.025-37.174-8.077-53.77,7.771
	c-16.498,15.754-19.426,40.926-7.011,60.1c12.252,18.921,36.251,26.516,57.211,18.226c21.71-8.587,30.375-30.152,29.375-42.151
	c-2.634,1.61-5.13,3.237-7.723,4.688c-1.676,0.938-2.579,2.169-3.124,4.062c-5.247,18.253-23.129,28.745-40.157,26.772
	c-14.918-1.729-27.649-12.156-31.949-26.63c-4.361-14.681,0.607-30.773,12.6-40.154c9.35-7.313,19.91-9.825,31.596-7.361
	c1.037,0.218,2.337,0.543,3.17,0.127C354.025,453.793,357.174,451.878,360.52,449.982z M365.827,446.982
	c5.269,10.085,24.354,41.74,26.177,43.401c1.458-0.889,2.941-1.794,4.533-2.766c-8.687-14.669-17.165-28.986-25.745-43.474
	C369.058,445.136,367.528,446.01,365.827,446.982z M412.726,477.631c-8.583-14.487-16.952-28.613-25.367-42.816
	c-1.124,0.612-1.917,1.013-2.678,1.468c-0.749,0.448-1.465,0.953-2.172,1.417c2.885,6.028,23.971,41.143,25.638,42.679
	C409.563,479.528,411.001,478.665,412.726,477.631z M431.105,466.2c-8.35-14.104-16.574-27.994-24.93-42.11
	c-1.71,0.996-3.235,1.884-5.045,2.938c8.353,14.108,16.608,28.052,24.977,42.187C427.933,468.114,429.436,467.207,431.105,466.2z
	 M422.46,414.978c8.26,13.947,16.323,27.564,24.487,41.35c1.161-0.683,2.107-1.215,3.025-1.79c0.578-0.361,1.114-0.788,1.905-1.355
	c-8.135-13.752-16.194-27.437-24.385-41.155C425.665,413.098,424.215,413.948,422.46,414.978z"/>
<path fill-rule="evenodd" clip-rule="evenodd" d="M753.969,279.224c1.132,2.171,2.109,4.007,3.049,5.862
	c0.842,1.663,1.135,3.389,0.537,5.217c-0.952,2.913-3.743,4.358-6.665,3.423c-3.243-1.038-5.261-4.217-4.844-7.709
	c0.103-0.862,0.354-1.706,0.594-2.815c-0.88,0.377-1.523,0.604-2.12,0.918c-3.963,2.089-7.915,4.198-12.063,6.402
	c0.976,1.924,1.802,3.691,2.749,5.391c1.549,2.781,1.569,5.56-0.143,7.576c-1.414,1.665-3.228,2.294-5.381,1.732
	c-2.711-0.707-4.949-3.179-5.151-5.985c-0.104-1.439,0.214-2.909,0.372-4.722c-4.364,2.304-8.559,4.519-12.939,6.832
	c0.973,1.929,1.888,3.646,2.705,5.408c0.458,0.985,0.927,2.02,1.087,3.078c0.337,2.23-0.348,4.184-2.258,5.508
	c-1.932,1.338-3.986,1.223-5.937,0.054c-2.651-1.587-3.837-3.992-3.534-7.073c0.085-0.865,0.354-1.712,0.634-3.015
	c-2.043,1.041-3.781,1.907-5.501,2.807c-2.567,1.343-5.151,2.659-7.671,4.086c-1.289,0.73-2.481,0.93-3.962,0.56
	c-2.711-0.678-5.488-0.913-8.562-0.046c-6.308-10.644-12.659-21.362-18.736-31.618c1.359-2.831,2.735-5.239,3.669-7.809
	c0.583-1.606,1.353-2.75,2.79-3.651c3.386-2.123,6.696-4.366,10.027-6.575c0.639-0.423,1.23-0.917,2.172-1.623
	c-1.124-0.214-1.873-0.286-2.578-0.502c-2.854-0.878-5.01-3.813-5.037-6.788c-0.023-2.428,1.446-4.658,3.566-5.411
	c2.418-0.859,5.359,0.248,7.06,2.678c0.621,0.889,1.188,1.814,1.8,2.709c0.614,0.897,1.254,1.777,2.096,2.967
	c4.081-2.689,8.107-5.344,12.548-8.27c-1.248-0.301-1.984-0.422-2.684-0.657c-3.11-1.045-5.041-3.856-4.919-7.106
	c0.158-4.233,4.148-6.644,7.883-4.618c1.171,0.635,2.151,1.753,2.996,2.825c1.219,1.546,2.234,3.251,3.486,5.113
	c4.415-2.908,8.726-5.749,13.415-8.838c-1.083-0.336-1.775-0.547-2.465-0.768c-2.61-0.834-4.193-2.638-4.8-5.268
	c-0.668-2.898,0.462-5.543,2.75-6.664c2.433-1.192,5.575-0.303,7.416,2.195c1.116,1.515,2.104,3.125,3.158,4.687
	c0.22,0.326,0.472,0.631,0.835,1.111c0.787-0.457,1.559-0.857,2.281-1.331c7.937-5.209,15.918-10.353,23.767-15.693
	c2.418-1.646,4.788-1.82,7.376-1.016c1.327,0.412,2.659,0.925,3.857,1.621c11.272,6.546,19.469,15.508,22.335,28.633
	c0.899,4.116,1.579,8.25,1.301,12.477c-0.091,1.386-0.327,2.777-0.646,4.129c-0.507,2.145-1.745,3.644-3.794,4.702
	c-8.344,4.31-16.618,8.752-24.913,13.155C756.02,278.016,755.093,278.581,753.969,279.224z M728.187,247.543
	c-1.661-2.746-3.126-5.165-4.694-7.757c-5.274,3.439-10.244,6.681-15.314,9.987c1.672,2.803,3.17,5.312,4.753,7.966
	C718.163,254.243,723.03,250.989,728.187,247.543z M745.269,276.605c-1.527-2.812-2.982-5.325-4.614-7.799
	c-5.589,2.923-10.842,5.67-16.185,8.465c1.757,2.851,3.063,5.497,4.837,7.893C734.757,282.242,739.908,279.479,745.269,276.605z
	 M693.635,270.642c4.977-3.333,9.586-6.42,14.264-9.553c-1.672-2.807-3.146-5.282-4.768-8.002c-4.82,3.144-9.472,6.177-14.341,9.353
	C690.426,265.208,691.932,267.758,693.635,270.642z M723.865,288.038c-1.713-2.865-3.186-5.326-4.777-7.988
	c-5.151,2.684-10.062,5.242-15.117,7.876c1.61,2.952,3.099,5.586,4.863,8.177C713.961,293.353,718.777,290.768,723.865,288.038z
	 M750.667,273.716c1.843-0.975,3.545-1.793,5.157-2.762c0.922-0.553,1.855-1.228,2.504-2.064c1.222-1.578,1.101-3.694-0.064-5.311
	c-0.998-1.386-2.586-2.072-4.191-1.51c-2.793,0.977-5.328,2.476-7.973,4.015C747.717,268.785,749.141,271.166,750.667,273.716z
	 M728.567,236.501c1.647,2.717,3.109,5.127,4.659,7.681c2.053-1.369,3.789-2.521,5.521-3.683c0.413-0.277,0.833-0.552,1.206-0.879
	c2.374-2.083,2.023-5.449-0.742-6.973c-1.614-0.89-3.275-0.838-4.834,0.109C732.513,233.888,730.707,235.115,728.567,236.501z
	 M683.802,265.861c-4.11,2.302-5.319,3.914-4.995,6.399c0.229,1.763,1.607,3.255,3.438,3.723c2.277,0.582,4.585-0.371,6.066-2.544
	C686.853,270.989,685.381,268.516,683.802,265.861z M698.586,290.819c-2.919,1.238-4.909,2.786-5.007,5.771
	c-0.059,1.805,0.774,3.338,2.514,4.056c2.75,1.136,4.929-0.135,7.192-1.883C701.71,296.099,700.21,293.564,698.586,290.819z"/>
<path fill-rule="evenodd" clip-rule="evenodd" d="M576.816,327.304c11.821-6.709,23.533-13.355,35.459-20.123
	c6.835,11.543,13.587,22.945,20.47,34.569c-11.562,7.141-23.015,14.212-34.688,21.421
	C590.965,351.194,583.947,339.345,576.816,327.304z"/>
<path fill-rule="evenodd" clip-rule="evenodd" d="M571.712,330.192c7.176,12.122,14.146,23.896,21.333,36.038
	c-10.421,6.514-20.845,12.893-31.419,19.423c-7.405-12.51-14.673-24.786-22.042-37.233
	C550.371,342.3,560.96,336.293,571.712,330.192z"/>
<path fill-rule="evenodd" clip-rule="evenodd" d="M617.368,304.304c11.254-6.388,22.429-12.729,33.864-19.22
	c6.537,11.039,12.983,21.923,19.624,33.136c-11.09,6.85-22.01,13.595-33.122,20.459C630.93,327.193,624.223,315.873,617.368,304.304
	z"/>
<path fill-rule="evenodd" clip-rule="evenodd" d="M534.475,351.312c7.464,12.607,14.728,24.878,22.152,37.419
	c-8.677,5.361-17.299,10.689-26.24,16.214c-7.583-12.804-15.076-25.454-22.744-38.401
	C516.63,361.443,525.438,356.443,534.475,351.312z"/>
<path fill-rule="evenodd" clip-rule="evenodd" d="M525.387,408.023c-8.055,4.975-16.012,9.889-24.305,15.011
	c-7.801-13.169-15.504-26.172-23.394-39.491c8.243-4.685,16.366-9.301,24.831-14.112
	C510.134,382.281,517.687,395.028,525.387,408.023z"/>
<path fill-rule="evenodd" clip-rule="evenodd" d="M450.735,398.822c7.376-4.187,14.473-8.215,21.849-12.402
	c7.843,13.24,15.599,26.333,23.508,39.686c-7.153,4.418-14.162,8.749-21.376,13.205
	C466.692,425.765,458.821,412.474,450.735,398.822z"/>
</svg>
